<svg width="24" height="24" viewBox="0 0 24 24" fill="none" xmlns="http://www.w3.org/2000/svg">
<path d="M14.7104 15.88L10.8304 12L14.7104 8.11999C14.803 8.02741 14.8764 7.9175 14.9265 7.79653C14.9766 7.67557 15.0024 7.54592 15.0024 7.41499C15.0024 7.28406 14.9766 7.15441 14.9265 7.03345C14.8764 6.91248 14.803 6.80257 14.7104 6.70999C14.6178 6.61741 14.5079 6.54397 14.387 6.49386C14.266 6.44376 14.1363 6.41797 14.0054 6.41797C13.8745 6.41797 13.7448 6.44376 13.6239 6.49386C13.5029 6.54397 13.393 6.61741 13.3004 6.70999L8.71041 11.3C8.61771 11.3925 8.54416 11.5024 8.49398 11.6234C8.4438 11.7443 8.41797 11.874 8.41797 12.005C8.41797 12.136 8.4438 12.2656 8.49398 12.3866C8.54416 12.5076 8.61771 12.6175 8.71041 12.71L13.3004 17.3C13.6904 17.69 14.3204 17.69 14.7104 17.3C15.0904 16.91 15.1004 16.27 14.7104 15.88Z" fill="#BBBBBB"/>
</svg>
